<?xml version="1.0" encoding="UTF-8" standalone="no"?>
<svg
   width="144"
   height="144"
   viewBox="0 0 38.1 38.1"
   version="1.1"
   id="svg4"
   sodipodi:docname="map-tomato-res-01.svg"
   inkscape:version="1.4 (e7c3feb1, 2024-10-09)"
   xmlns:inkscape="http://www.inkscape.org/namespaces/inkscape"
   xmlns:sodipodi="http://sodipodi.sourceforge.net/DTD/sodipodi-0.dtd"
   xmlns="http://www.w3.org/2000/svg"
   xmlns:svg="http://www.w3.org/2000/svg"
   xmlns:rdf="http://www.w3.org/1999/02/22-rdf-syntax-ns#"
   xmlns:cc="http://creativecommons.org/ns#"
   xmlns:dc="http://purl.org/dc/elements/1.1/">
  <metadata
     id="metadata10">
    <rdf:RDF>
      <cc:Work
         rdf:about="">
        <dc:format>image/svg+xml</dc:format>
        <dc:type
           rdf:resource="http://purl.org/dc/dcmitype/StillImage" />
      </cc:Work>
    </rdf:RDF>
  </metadata>
  <defs
     id="defs8" />
  <sodipodi:namedview
     pagecolor="#ffffff"
     bordercolor="#666666"
     borderopacity="1"
     objecttolerance="10"
     gridtolerance="10"
     guidetolerance="10"
     inkscape:pageopacity="0"
     inkscape:pageshadow="2"
     inkscape:window-width="1920"
     inkscape:window-height="1022"
     id="namedview6"
     showgrid="false"
     inkscape:zoom="2.5208818"
     inkscape:cx="-5.1569257"
     inkscape:cy="60.891392"
     inkscape:window-x="1512"
     inkscape:window-y="30"
     inkscape:window-maximized="1"
     inkscape:current-layer="svg4"
     inkscape:showpageshadow="2"
     inkscape:pagecheckerboard="0"
     inkscape:deskcolor="#d1d1d1" />
  <path
     sodipodi:nodetypes="sccccs"
     inkscape:connector-curvature="0"
     id="path920-1"
     d="m 20.664464,29.946367 c 1.319533,-0.452067 2.144742,-2.14346 2.144742,-2.14346 0,0 -3.028368,-2.692998 -3.970432,-3.345429 l -1.10363,1.254341 -0.07925,3.856591 c 0,0 1.689037,0.830024 3.00857,0.377957 z"
     style="fill:#cc0000;fill-opacity:1;stroke:#323232;stroke-width:0.529167;stroke-linecap:butt;stroke-linejoin:miter;stroke-miterlimit:4;stroke-dasharray:none;stroke-opacity:1" />
  <path
     style="fill:#cc0000;fill-opacity:1;stroke:#323232;stroke-width:0.529167;stroke-linecap:butt;stroke-linejoin:miter;stroke-miterlimit:4;stroke-dasharray:none;stroke-opacity:1"
     d="m 10.134647,15.796539 c 0.09514,1.391575 1.515324,2.62643 1.515324,2.62643 0,0 1.810989,-0.573413 2.685013,-1.314515 l 0.648087,-3.045439 -3.70467,-1.074709 c 0,0 -1.238897,1.416658 -1.143754,2.808233 z"
     id="path913"
     inkscape:connector-curvature="0"
     sodipodi:nodetypes="sccccs" />
  <path
     sodipodi:nodetypes="sccccs"
     inkscape:connector-curvature="0"
     id="path915"
     d="m 28.637608,15.145504 c -0.452064,-1.319534 -1.013375,-2.306183 -1.013375,-2.306183 0,0 -2.733358,1.615762 -3.385789,2.557826 l 0.729659,2.435516 2.928306,0.281051 c 0,0 1.193266,-1.648677 0.741199,-2.96821 z"
     style="fill:#cc0000;fill-opacity:1;stroke:#323232;stroke-width:0.529167;stroke-linecap:butt;stroke-linejoin:miter;stroke-miterlimit:4;stroke-dasharray:none;stroke-opacity:1" />
  <path
     id="path5"
     style="fill:#74ab41;fill-opacity:1;stroke:#365220;stroke-width:1.83595;stroke-linecap:round;stroke-dasharray:none;stroke-opacity:1;paint-order:markers stroke fill"
     d="m 22.12306,19.457271 c -0.299918,1.518672 2.770924,3.245764 2.770924,3.245764 -2.763012,0.535643 -4.076462,-1.218895 -4.076462,-1.218895 -1.533005,1.259142 -2.397412,-0.124114 -2.397412,-0.124114 -1.871497,-0.71265 -4.179278,0.791495 -4.179278,0.791495 1.320633,-3.509152 3.087405,-2.94248 3.087405,-2.94248 -0.365611,-2.260386 1.305537,-2.026866 1.305537,-2.026866 1.051414,-1.704743 1.408353,-4.037262 1.408353,-4.037262 1.481131,2.333273 0.989058,4.161377 0.989058,4.161377 1.297813,0.767216 1.091875,2.15098 1.091875,2.150981 z"
     sodipodi:nodetypes="cccccccccc" />
</svg>
