<?xml version="1.0" encoding="UTF-8" standalone="no"?>
<svg
   width="128"
   height="128"
   viewBox="0 0 33.866667 33.866667"
   version="1.1"
   id="svg6"
   sodipodi:docname="proj-tomato-01.svg"
   inkscape:version="1.4 (e7c3feb1, 2024-10-09)"
   xmlns:inkscape="http://www.inkscape.org/namespaces/inkscape"
   xmlns:sodipodi="http://sodipodi.sourceforge.net/DTD/sodipodi-0.dtd"
   xmlns="http://www.w3.org/2000/svg"
   xmlns:svg="http://www.w3.org/2000/svg"
   xmlns:rdf="http://www.w3.org/1999/02/22-rdf-syntax-ns#"
   xmlns:cc="http://creativecommons.org/ns#"
   xmlns:dc="http://purl.org/dc/elements/1.1/">
  <metadata
     id="metadata12">
    <rdf:RDF>
      <cc:Work
         rdf:about="">
        <dc:format>image/svg+xml</dc:format>
        <dc:type
           rdf:resource="http://purl.org/dc/dcmitype/StillImage" />
      </cc:Work>
    </rdf:RDF>
  </metadata>
  <defs
     id="defs10" />
  <sodipodi:namedview
     pagecolor="#ffffff"
     bordercolor="#666666"
     borderopacity="1"
     objecttolerance="10"
     gridtolerance="10"
     guidetolerance="10"
     inkscape:pageopacity="0"
     inkscape:pageshadow="2"
     inkscape:window-width="1920"
     inkscape:window-height="1022"
     id="namedview8"
     showgrid="false"
     inkscape:zoom="1.988152"
     inkscape:cx="46.274127"
     inkscape:cy="13.83194"
     inkscape:window-x="1512"
     inkscape:window-y="30"
     inkscape:window-maximized="1"
     inkscape:current-layer="svg6"
     inkscape:showpageshadow="2"
     inkscape:pagecheckerboard="0"
     inkscape:deskcolor="#d1d1d1" />
  <path
     id="path1"
     style="fill:#cc0000;fill-opacity:1;fill-rule:evenodd;stroke:#2d2d2d;stroke-width:3.175;stroke-dasharray:none"
     d="m 29.969369,17.4625 c 0,7.199604 -5.836432,13.036036 -13.036036,13.036036 -3.522116,0 -5.981672,-2.051316 -8.3275698,-4.321204 C 6.1563802,23.807311 3.897298,21.139988 3.8972981,17.4625 c 0,-1.567394 0.2766222,-3.070181 0.78371,-4.462202 C 6.5031556,7.9982704 10.394001,5.0312139 16.02621,5.0312136 c 3.504667,-1e-7 7.102561,1.3509479 9.445205,3.6009718 2.469827,2.3721766 4.497954,5.1353776 4.497954,8.8303146 z"
     sodipodi:nodetypes="ssssssss" />
  <path
     style="fill:#74ab41;fill-opacity:1;stroke:#365220;stroke-width:1.65365;stroke-dasharray:none;stroke-opacity:1"
     d="M 27.55584,8.7768619 C 26.478783,7.3879865 23.983729,4.8649262 21.085305,5.3333949 20.806232,5.3787732 20.573118,5.1222985 20.648237,4.8494395 L 21.299619,2.4833657 C 21.450708,1.9366843 21.202549,1.3867236 20.74872,1.2617808 L 19.510832,0.92098752 C 19.056995,0.79604542 18.562317,1.141504 18.411774,1.6883347 l -0.690019,2.5064017 c -0.06516,0.2366634 -0.328905,0.356948 -0.54793,0.2451315 -0.985887,-0.503253 -4.078271,-0.1928925 -7.100566,0.6428436 -0.4136804,0.114355 -0.3566066,1.2502524 0.07154,1.2878525 1.417751,0.6446705 2.798117,-0.1900556 4.059495,-0.1038287 0.251261,0.1883855 0.266807,0.2732555 -0.03224,0.3694462 -0.900654,0.2882059 -1.101067,0.4757538 -2.603874,2.3288669 -0.25576,0.315383 0.0968,0.758105 0.467709,0.5924335 1.446223,-0.6466107 2.409758,-1.239755 3.996296,-0.5747369 0.186889,0.078409 0.29036,0.2770267 0.233765,0.4717162 -0.269382,1.1033248 -0.407885,3.0110878 -0.179286,4.6572728 0.08202,0.263407 0.40084,0.363152 0.616641,0.19073 0.59579,-0.71254 1.459433,-0.739428 2.861105,-3.860254 0.05654,-0.218072 0.27934,-0.346631 0.494519,-0.279604 0.822358,0.25515 2.277218,0.629742 3.413088,2.574886 0.185953,0.318973 0.666671,0.220078 0.719316,-0.145229 0.14403,-0.999719 0.454116,-2.208143 -1.158954,-3.8713113 -0.244977,-0.2525519 -0.07493,-0.6765957 0.27641,-0.6667355 0.709804,0.019885 1.966934,0.7730616 3.838616,1.3554336 0.380454,0.11732 0.651834,-0.3189273 0.40844,-0.6327854 z"
     id="path1-6"
     sodipodi:nodetypes="scccsssccccccsccccccccccccss" />
</svg>
